<mxfile host="app.diagrams.net" modified="2022-09-09T01:34:12.890Z" agent="5.0 (Macintosh; Intel Mac OS X 10_15_7) AppleWebKit/537.36 (KHTML, like Gecko) Chrome/104.0.0.0 Safari/537.36" etag="HAxHxXujd3z1Tqf9rcOp" version="14.7.6" type="github">
  <diagram id="mUTb9pxzMLT0bge-f1Fd" name="Page-1">
    <mxGraphModel dx="4609" dy="2291" grid="1" gridSize="10" guides="1" tooltips="1" connect="1" arrows="1" fold="1" page="1" pageScale="1" pageWidth="1000" pageHeight="400" math="0" shadow="0">
      <root>
        <mxCell id="0" />
        <mxCell id="1" parent="0" />
        <mxCell id="6iu_p2EDdZprySknlbIH-43" value="" style="rounded=0;whiteSpace=wrap;html=1;" parent="1" vertex="1">
          <mxGeometry x="-146" y="-360.5" width="140" height="407" as="geometry" />
        </mxCell>
        <mxCell id="6iu_p2EDdZprySknlbIH-70" value="E1E&lt;br&gt;CLAW&lt;br&gt;CYHY&lt;br&gt;LRA&lt;br&gt;EDR" style="rounded=0;whiteSpace=wrap;html=1;" parent="1" vertex="1">
          <mxGeometry x="-810" y="-359" width="140" height="406" as="geometry" />
        </mxCell>
        <mxCell id="6iu_p2EDdZprySknlbIH-2" value="" style="rounded=0;whiteSpace=wrap;html=1;" parent="1" vertex="1">
          <mxGeometry x="-650" y="-359.5" width="490" height="406" as="geometry" />
        </mxCell>
        <mxCell id="6iu_p2EDdZprySknlbIH-3" value="Data Transformation" style="text;html=1;strokeColor=none;fillColor=none;align=center;verticalAlign=middle;whiteSpace=wrap;rounded=0;fontSize=24;" parent="1" vertex="1">
          <mxGeometry x="-560" y="-340" width="260" height="20" as="geometry" />
        </mxCell>
        <mxCell id="6iu_p2EDdZprySknlbIH-4" value="" style="outlineConnect=0;fontColor=#232F3E;gradientColor=none;fillColor=#277116;strokeColor=none;dashed=0;verticalLabelPosition=bottom;verticalAlign=top;align=center;html=1;fontSize=12;fontStyle=0;aspect=fixed;pointerEvents=1;shape=mxgraph.aws4.bucket_with_objects;" parent="1" vertex="1">
          <mxGeometry x="-760" y="-80" width="55" height="57.2" as="geometry" />
        </mxCell>
        <mxCell id="6iu_p2EDdZprySknlbIH-7" value="" style="outlineConnect=0;fontColor=#232F3E;gradientColor=none;fillColor=#5A30B5;strokeColor=none;dashed=0;verticalLabelPosition=bottom;verticalAlign=top;align=center;html=1;fontSize=12;fontStyle=0;aspect=fixed;pointerEvents=1;shape=mxgraph.aws4.glue_data_catalog;" parent="1" vertex="1">
          <mxGeometry x="-440" y="-200" width="55.39" height="60" as="geometry" />
        </mxCell>
        <mxCell id="6iu_p2EDdZprySknlbIH-8" value="Data Catalog" style="text;html=1;strokeColor=none;fillColor=none;align=center;verticalAlign=middle;whiteSpace=wrap;rounded=0;fontSize=16;" parent="1" vertex="1">
          <mxGeometry x="-432.31" y="-240" width="40" height="20" as="geometry" />
        </mxCell>
        <mxCell id="6iu_p2EDdZprySknlbIH-9" value="" style="outlineConnect=0;fontColor=#232F3E;gradientColor=none;fillColor=#277116;strokeColor=none;dashed=0;verticalLabelPosition=bottom;verticalAlign=top;align=center;html=1;fontSize=12;fontStyle=0;aspect=fixed;pointerEvents=1;shape=mxgraph.aws4.bucket_with_objects;" parent="1" vertex="1">
          <mxGeometry x="-103.5" y="-85.19999999999999" width="55" height="57.2" as="geometry" />
        </mxCell>
        <mxCell id="6iu_p2EDdZprySknlbIH-44" value="SageMaker" style="rounded=0;whiteSpace=wrap;html=1;" parent="1" vertex="1">
          <mxGeometry x="8.5" y="-359.5" width="140" height="406.5" as="geometry" />
        </mxCell>
        <mxCell id="6iu_p2EDdZprySknlbIH-45" value="Data Access" style="text;html=1;strokeColor=none;fillColor=none;align=center;verticalAlign=middle;whiteSpace=wrap;rounded=0;fontSize=24;" parent="1" vertex="1">
          <mxGeometry x="-141" y="-333" width="130" height="20" as="geometry" />
        </mxCell>
        <mxCell id="6iu_p2EDdZprySknlbIH-46" value="Data Consumers" style="text;html=1;strokeColor=none;fillColor=none;align=center;verticalAlign=middle;whiteSpace=wrap;rounded=0;fontSize=24;" parent="1" vertex="1">
          <mxGeometry x="58.5" y="-333" width="40" height="20" as="geometry" />
        </mxCell>
        <mxCell id="6iu_p2EDdZprySknlbIH-72" value="Data Sources" style="text;html=1;strokeColor=none;fillColor=none;align=center;verticalAlign=middle;whiteSpace=wrap;rounded=0;fontSize=24;" parent="1" vertex="1">
          <mxGeometry x="-760" y="-333" width="40" height="20" as="geometry" />
        </mxCell>
      </root>
    </mxGraphModel>
  </diagram>
</mxfile>
